<svg xmlns="http://www.w3.org/2000/svg" xmlns:xlink="http://www.w3.org/1999/xlink" version="1.1" id="Layer_1" x="0px" y="0px" viewBox="0 0 368.39 333.94" style="enable-background:new 0 0 368.39 333.94;" xml:space="preserve" width="368.39"  height="333.94" >
<style type="text/css">
	.st0{fill:#525252;}
</style>
<g>
	<path class="st0" d="M152.16,78.1c31.82,0,63.65-0.01,95.47,0.03c1.77,0,4.12-0.8,5.18,0.82c1.17,1.78-1.09,3.22-1.73,4.85   c-2.83,7.19-7.95,9.02-15.63,8.98c-57.15-0.36-114.3-0.19-171.45-0.18c-3,0-6.01-0.09-8.99,0.2c-6.68,0.65-10.65,4.25-11.96,10.76   c-0.46,2.27-0.72,4.62-0.72,6.93c-0.04,42.98-0.05,85.97,0,128.95c0.01,11.4,4.44,16.1,15.95,16.6c7.98,0.34,15.99,0.21,23.99,0.1   c12.6-0.17,23.94,3.61,34.3,10.57c14.93,10.04,29.9,20.03,44.72,30.22c3.23,2.22,5.72,2.27,8.98,0.03   c14.84-10.17,29.83-20.12,44.76-30.17c10.21-6.87,21.3-10.84,33.75-10.64c7.83,0.12,15.67,0.18,23.49-0.08   c12.68-0.43,16.71-4.63,16.73-17.14c0.03-22.99-0.01-45.99-0.02-68.98c0-3.17,0.38-6.38-0.04-9.49   c-1.93-14.04,2.14-26.22,10.91-37.07c0.91-1.12,1.29-3.41,2.88-3.05c2.05,0.47,1.29,2.78,1.3,4.32   c0.06,23.33,0.05,46.65,0.05,69.98c0,14.5,0,28.99-0.02,43.49c-0.03,21.17-11.26,32.41-32.43,32.49c-7,0.03-14,0.09-20.99-0.02   c-10.36-0.17-19.65,2.94-28.17,8.71c-14.49,9.8-29.01,19.56-43.52,29.33c-10.03,6.75-16.22,6.78-26.16,0.08   c-14.65-9.86-29.32-19.7-43.91-29.64c-8.39-5.72-17.56-8.59-27.72-8.47c-7.83,0.09-15.66,0.12-23.49-0.03   c-18.54-0.34-29.79-11.74-29.82-30.27c-0.07-31.99-0.04-63.98-0.05-95.97c0-12-0.07-23.99,0.06-35.99   c0.19-18.93,11.38-30.13,30.34-30.19c31.32-0.1,62.65-0.03,93.97-0.03C152.16,78.11,152.16,78.11,152.16,78.1z"/>
	<path class="st0" d="M215.56,174.15c1.36-4.04,3.55-9.31,4.92-14.78c4.51-18.06,14.27-33,25.88-47.27   c16.09-19.77,31.4-40.17,46.83-60.47c3.04-3.99,5.22-4.41,9.12-1.1c7.1,6.04,14.56,11.67,22.05,17.24   c2.89,2.15,2.78,3.75,0.69,6.44c-20.14,25.92-40.19,51.92-60.21,77.93c-4.35,5.66-9.99,9.7-15.91,13.49   c-8.14,5.21-16.16,10.59-24.3,15.8c-2.2,1.41-4.7,1.9-7.08,0.32C215.34,180.27,214.95,178.02,215.56,174.15z M233.42,155.18   c-0.83,1.65,0.35,2.79,1.66,3.94c1.53,1.35,2.91,1.07,4.47,0c3.27-2.26,6.6-4.46,9.95-6.6c2.26-1.44,1.99-2.69,0.01-4.13   c-2.81-2.05-5.6-4.14-8.32-6.32c-1.84-1.48-2.98-1.04-3.7,1.03C236.14,147.02,234.84,150.95,233.42,155.18z"/>
	<path class="st0" d="M150.31,125.13c22.8,0,45.6-0.02,68.4,0.04c1.72,0,4.03-0.92,5.05,0.93c0.86,1.58-1.11,2.92-1.72,4.41   c-2.97,7.29-8.24,9.22-16.09,9.14c-40.27-0.41-80.54-0.16-120.82-0.15c-1.83,0-3.68,0.06-5.48-0.23c-4.47-0.71-7.2-3.85-6.78-7.8   c0.48-4.43,3.32-6.3,7.54-6.31c12.15-0.04,24.3-0.03,36.45-0.03C128.01,125.13,139.16,125.13,150.31,125.13z"/>
	<path class="st0" d="M142.27,167.31c19.66,0,39.33,0,58.99,0c7.2,0,7.32,0.15,5.86,6.86c-1.61,7.44-1.61,7.52-9.41,7.53   c-38.49,0.04-76.99,0.03-115.48,0.03c-6.15,0-9.43-2.55-9.41-7.18c0.01-4.58,3.34-7.11,9.45-7.12c20-0.01,40,0,59.99,0   C142.27,167.38,142.27,167.35,142.27,167.31z"/>
	<path class="st0" d="M343.22,48.45c-1.27,5.49-5.87,9.78-9.78,14.48c-1.11,1.33-2.46,0.13-3.51-0.67   c-8.46-6.49-16.9-13.01-25.37-19.49c-1.78-1.36-2.24-2.8-0.75-4.63c0.1-0.13,0.19-0.28,0.29-0.41c8.67-11.58,12.84-18.3,28.11-4.96   c2.38,2.08,5.04,3.84,7.41,5.93C342.25,41.02,343.65,43.97,343.22,48.45z"/>
</g>
<g>
	<path class="st0" d="M74.73,196.16h16.45c7.73,0,16.14,1.64,16.14,11.33c0,4.97-3.05,8.37-7.6,9.82v0.13   c5.79,0.76,9.66,5.1,9.66,10.89c0,9.32-8.72,12.4-16.57,12.4H74.73V196.16z M84.45,213.98h7.04c2.99,0,6.11-1.26,6.11-4.85   c0-3.72-3.49-4.66-6.54-4.66h-6.6V213.98z M84.45,232.43h8.72c3.05,0,6.48-1.32,6.48-5.23c0-4.22-4.67-4.91-7.85-4.91h-7.35V232.43   z"/>
	<path class="st0" d="M115.48,196.16h9.72v35.51h18.01v9.07h-27.73V196.16z"/>
	<path class="st0" d="M170,195.03c13.77,0,23.8,9.13,23.8,23.42c0,14.29-10.03,23.42-23.8,23.42s-23.8-9.13-23.8-23.42   C146.2,204.16,156.23,195.03,170,195.03z M170,232.81c8.29,0,13.71-6.04,13.71-14.36c0-8.31-5.42-14.36-13.71-14.36   s-13.71,6.04-13.71,14.36C156.29,226.76,161.71,232.81,170,232.81z"/>
	<path class="st0" d="M240.34,237.59c-5.73,3.02-12.02,4.28-18.5,4.28c-13.77,0-23.8-9.13-23.8-23.42   c0-14.29,10.03-23.42,23.8-23.42c6.98,0,13.15,1.57,17.57,5.73l-6.85,7.56c-2.62-2.77-5.8-4.22-10.72-4.22   c-8.29,0-13.71,6.04-13.71,14.36c0,8.31,5.42,14.36,13.71,14.36c4.24,0,7.35-1.2,9.16-2.2v-7.24h-7.91v-9.07h17.26V237.59z"/>
</g>
</svg>