<svg xmlns:xlink="http://www.w3.org/1999/xlink" xmlns="http://www.w3.org/2000/svg" version="1.0" width="500" height="500" viewBox="0 0 500.000000 500.000000" preserveAspectRatio="xMidYMid meet">

<g transform="translate(0.000000,500.000000) scale(0.100000,-0.100000)" fill="#000000" stroke="none">
<path d="M2560 4939 c-8 -4 -67 -22 -130 -39 -590 -162 -1144 -535 -1519 -1023 -223 -291 -399 -672 -465 -1012 -89 -462 -37 -912 153 -1318 223 -476 597 -850 1086 -1083 380 -181 705 -259 1125 -271 567 -15 1119 129 1622 423 67 39 88 62 46 50 -13 -3 -88 -18 -168 -33 -283 -52 -675 -31 -1137 62 -661 134 -1092 399 -1386 851 -180 278 -317 648 -378 1019 -20 122 -17 445 5 580 63 387 188 706 403 1028 169 254 404 494 678 692 44 32 84 61 88 65 13 12 -6 19 -23 9z"/>
</g>
</svg>